<?xml version="1.0" encoding="utf-8"?>
<!DOCTYPE svg PUBLIC "-//W3C//DTD SVG 1.1//EN" "http://www.w3.org/Graphics/SVG/1.1/DTD/svg11.dtd">
<svg version="1.1" id="Layer_1" xmlns="http://www.w3.org/2000/svg" xmlns:xlink="http://www.w3.org/1999/xlink" x="0px" y="0px"
	 width="1280px" height="800px" viewBox="0 0 1280 800" enable-background="new 0 0 1280 800" xml:space="preserve">
<path fill="none" stroke="#43423D" stroke-width="20" stroke-miterlimit="10" d="M604.333,44.889c0,0-95.558,20.931-148.889,150
	C423.446,272.33,406.417,435.861,431,567.111c28.079,149.911,181.823,146.535,255.556,138.138
	c98.413-11.207,118.394-47.064,130-60.36C838.74,619.476,923.223,498.223,857.667,246C792.111-6.222,604.333,44.889,604.333,44.889z
	"/>
<ellipse transform="matrix(0.906 -0.4234 0.4234 0.906 -167.9712 283.5712)" fill="#43423D" cx="554.333" cy="519.889" rx="35.555" ry="48.333"/>
<ellipse transform="matrix(0.8968 -0.4424 0.4424 0.8968 -133.5608 374.6641)" fill="#43423D" cx="736.444" cy="473.667" rx="21.111" ry="28.333"/>
<ellipse fill="#43423D" cx="682.667" cy="636.555" rx="17.222" ry="16.111"/>
<ellipse fill="#43423D" cx="537.778" cy="207.111" rx="25" ry="24.444"/>
<ellipse transform="matrix(0.9035 0.4286 -0.4286 0.9035 187.3793 -240.1594)" fill="#43423D" cx="626.969" cy="296" rx="23.747" ry="28.889"/>
<ellipse fill="#43423D" cx="763.222" cy="307.667" rx="14.445" ry="17.222"/>
<ellipse fill="#43423D" cx="729.333" cy="167.666" rx="19.444" ry="21.667"/>
<ellipse fill="#43423D" cx="826" cy="421" rx="10.556" ry="11.666"/>
<ellipse fill="#43423D" cx="563.222" cy="380.285" rx="8.889" ry="5.715"/>
<ellipse fill="#43423D" cx="515.445" cy="637.111" rx="11.111" ry="5.555"/>
</svg>
